<svg xmlns="http://www.w3.org/2000/svg" viewBox="0 0 258.62 215.66"><defs><style>.cls-1{fill:#f7941d;}.cls-2{fill:#231f20;}</style></defs><title>Asset 2</title><g id="Layer_2" data-name="Layer 2"><g id="Layer_1-2" data-name="Layer 1"><path class="cls-1" d="M70.49,198.91c-15.06-6-23.77-25.2-34.89-44.65S11.1,114.9,7.67,92c-3.58-22.9,2.48-48.81,18.48-65.06C42.14,10.83,67.92,4.39,91.42,4c23.36-.57,44.59,4.73,59.94,15.6s25.12,27.31,40,41.05c15.05,13.88,35.22,25.06,43.78,41.95,8.72,16.88,5.67,39.33-3.85,58.3-9.67,19-25.67,34.31-44.05,38.65-18.39,4.5-39.17-2-60-1.74S85.4,205,70.49,198.91Z"/><path class="cls-2" d="M196.24,215.66a30.93,30.93,0,0,1-19.12-6.19,60.65,60.65,0,0,1-8.7-8.85c-4.42-5.17-8.59-10.05-14.58-11.22-7.45-1.46-14.54,3.5-21.4,8.29-1.06.74-2.11,1.48-3.16,2.18-25.24,17-60,18.8-86.57,4.4C17.59,190.64.83,163.33,0,134.71H0c0-1.9,0-3.81.06-5.69C1.23,105.14,12.56,81.28,35.75,54,52.53,34.17,69,19.7,86,9.71,108.82-3.62,129.59-3.24,153.37,11,173.75,23.1,192,38.82,209.7,54l1.86,1.6c17.44,15,39.15,33.65,45.27,59.09,4.62,19.15.26,41-12.94,64.83-5.2,9.39-13.63,22.77-26.84,30.43A42.37,42.37,0,0,1,196.24,215.66Zm-45.08-30.52a17.85,17.85,0,0,1,3.45.34c7.35,1.43,12.18,7.08,16.85,12.54a57.22,57.22,0,0,0,8.09,8.28c9.1,7,23.69,7.07,35.49.22,9.4-5.46,17.45-14.65,25.35-28.92,12.7-23,16.93-43.8,12.56-62-5.83-24.18-27-42.37-44-57l-1.85-1.6C189.55,42,171.4,26.36,151.32,14.38,128.64.85,109.72.49,88.06,13.17,71.39,22.92,55.28,37.11,38.8,56.54,16.22,83.16,5.18,106.26,4.08,129.21,4,131,4,132.8,4,134.59H4a79,79,0,0,0,40.59,66.17c25.27,13.71,58.39,12,82.43-4.21,1-.69,2.06-1.41,3.1-2.14C136.42,190,143.43,185.14,151.16,185.14Z"/></g></g></svg>