<svg width="171" height="59" viewBox="0 0 171 59" fill="none" xmlns="http://www.w3.org/2000/svg">
<path opacity="0.8" d="M29.0258 0H0V29.026H29.0258V0Z" fill="#C1C7CD"/>
<path opacity="0.4" d="M29.0258 29.026H0V58.052H29.0258V29.026Z" fill="#C1C7CD"/>
<path d="M46.0511 24C52.6789 24 58.051 18.6272 58.051 11.9999C58.051 5.37259 52.6789 0 46.0511 0C39.4236 0 34.051 5.37259 34.051 11.9999C34.051 18.6272 39.4236 24 46.0511 24Z" fill="#C1C7CD"/>
<path opacity="0.6" d="M29.0254 29.026H58.051L29.0254 58.052V29.026Z" fill="#C1C7CD"/>
<path d="M76.6281 40.842H96.0871V35.543H83.055V10.4443H76.6281V40.842Z" fill="#C1C7CD"/>
<path d="M109.272 41.288C116.188 41.288 120.493 36.553 120.493 29.532C120.493 22.467 116.188 17.747 109.272 17.747C102.355 17.747 98.051 22.467 98.051 29.532C98.051 36.553 102.355 41.288 109.272 41.288ZM109.301 36.39C106.11 36.39 104.478 33.466 104.478 29.488C104.478 25.51 106.11 22.571 109.301 22.571C112.433 22.571 114.066 25.51 114.066 29.488C114.066 33.466 112.433 36.39 109.301 36.39Z" fill="#C1C7CD"/>
<path d="M133.621 49.867C140.137 49.867 144.768 46.898 144.768 41.065V18.044H138.49V21.873H138.252C137.406 20.018 135.55 17.747 131.736 17.747C126.734 17.747 122.504 21.636 122.504 29.399C122.504 36.983 126.615 40.516 131.751 40.516C135.387 40.516 137.421 38.69 138.252 36.805H138.519V40.976C138.519 44.108 136.515 45.325 133.769 45.325C130.979 45.325 129.569 44.108 129.049 42.727L123.202 43.514C123.959 47.106 127.476 49.867 133.621 49.867ZM133.755 35.766C130.653 35.766 128.96 33.302 128.96 29.369C128.96 25.495 130.623 22.779 133.755 22.779C136.827 22.779 138.549 25.376 138.549 29.369C138.549 33.391 136.797 35.766 133.755 35.766Z" fill="#C1C7CD"/>
<path d="M158.847 41.288C165.764 41.288 170.068 36.553 170.068 29.532C170.068 22.467 165.764 17.747 158.847 17.747C151.93 17.747 147.626 22.467 147.626 29.532C147.626 36.553 151.93 41.288 158.847 41.288ZM158.876 36.39C155.685 36.39 154.053 33.466 154.053 29.488C154.053 25.51 155.685 22.571 158.876 22.571C162.008 22.571 163.641 25.51 163.641 29.488C163.641 33.466 162.008 36.39 158.876 36.39Z" fill="#C1C7CD"/>
</svg>
